{"glyphs":{":":{"x_min":0,"x_max":264,"ha":264,"o":"m 56 429 q 56 460 78 483 q 100 505 131 505 q 163 505 185 483 q 207 460 207 429 q 207 397 185 375 q 163 353 131 353 q 101 353 78 375 q 56 398 56 429 z m 56 64 q 56 96 78 118 q 100 140 131 140 q 163 140 185 118 q 207 96 207 64 q 207 32 185 10 q 163 -12 131 -12 q 100 -12 78 10 q 56 33 56 64 z"},"$":{"x_min":0,"x_max":528,"ha":528,"o":"m 289 -116 l 250 -116 l 250 -3 l 248 -3 q 148 -3 81 51 q 13 105 13 178 q 13 214 36 239 q 59 264 94 264 q 122 264 139 247 q 156 230 156 203 q 156 166 126 148 q 96 131 96 121 q 96 85 139 60 q 182 35 250 33 l 250 298 q 130 339 80 388 q 29 436 29 506 q 29 589 87 640 q 146 690 250 696 l 250 753 l 289 753 l 289 695 q 376 688 430 643 q 484 598 484 533 q 484 497 463 476 q 442 455 407 455 q 380 455 362 473 q 344 492 344 520 q 344 547 369 569 q 393 591 393 601 q 393 623 363 640 q 333 657 289 658 l 289 428 q 411 386 461 336 q 512 285 512 208 q 512 122 454 66 q 395 11 289 -3 z m 289 36 q 340 43 373 76 q 406 108 406 150 q 406 193 378 224 q 351 255 289 280 z m 250 659 l 248 659 q 197 659 164 631 q 131 602 131 560 q 131 522 159 495 q 187 468 250 445 z"},"?":{"x_min":0,"x_max":485,"ha":485,"o":"m 192 237 q 191 241 191 250 q 191 287 202 324 q 213 361 233 391 q 236 396 242 404 q 289 471 289 537 q 289 605 263 645 q 237 684 192 684 q 165 684 148 674 q 132 665 132 649 q 132 641 159 617 q 187 593 187 557 q 187 528 165 509 q 144 489 112 489 q 75 489 50 514 q 26 540 26 580 q 26 639 76 678 q 125 718 200 718 q 301 718 364 665 q 426 612 426 527 q 426 486 409 456 q 393 425 354 396 q 343 388 314 373 q 284 357 270 345 q 249 328 238 302 q 228 275 226 237 z m 136 59 q 136 90 158 113 q 180 135 211 135 q 243 135 265 113 q 287 90 287 59 q 287 27 265 6 q 243 -16 211 -16 q 180 -16 158 6 q 136 28 136 59 z"},"<":{"x_min":0,"x_max":833,"ha":833,"o":"m 704 484 l 248 298 l 704 112 l 704 23 l 129 259 l 129 337 l 704 574 z"},"'":{"x_min":0,"x_max":175,"ha":175,"o":"m 78 418 l 42 642 q 42 646 41 650 q 41 654 41 661 q 41 687 53 700 q 65 714 87 714 q 110 714 122 700 q 134 687 134 661 q 134 653 134 649 q 133 645 133 642 l 97 418 z"},"=":{"x_min":0,"x_max":833,"ha":833,"o":"m 709 238 l 709 157 l 124 157 l 124 238 z m 709 440 l 709 358 l 124 358 l 124 440 z"},"a":{"x_min":0,"x_max":554,"ha":554,"o":"m 330 318 l 330 380 q 330 426 310 447 q 290 468 247 468 q 212 468 191 458 q 170 448 170 432 q 170 423 187 402 q 203 381 203 364 q 203 339 183 322 q 163 304 133 304 q 99 304 77 324 q 56 345 56 378 q 56 435 113 470 q 169 505 263 505 q 369 505 415 465 q 462 425 462 334 l 462 111 q 462 76 470 62 q 478 48 496 48 q 512 48 518 61 q 525 73 525 106 l 525 131 l 560 131 q 560 122 561 110 q 561 107 561 107 q 561 46 534 18 q 506 -11 449 -11 q 404 -11 374 7 q 343 26 329 62 q 305 24 265 5 q 224 -14 170 -14 q 103 -14 61 21 q 19 57 19 115 q 19 163 49 197 q 78 231 141 255 q 156 261 221 280 q 286 298 330 318 z m 330 277 q 230 238 198 208 q 166 178 166 132 q 166 95 186 73 q 206 51 240 51 q 282 51 306 82 q 330 112 330 166 z"},"L":{"x_min":0,"x_max":646,"ha":646,"o":"m 13 0 l 13 30 l 59 30 q 88 30 99 42 q 110 55 110 88 l 110 616 q 110 649 99 662 q 88 674 59 674 l 13 674 l 13 701 l 348 701 l 348 674 l 302 674 q 273 674 262 662 q 251 649 251 616 l 251 111 q 251 60 263 46 q 275 32 317 32 q 428 32 490 91 q 552 149 578 278 l 623 278 l 607 0 z"},"3":{"x_min":0,"x_max":528,"ha":528,"o":"m 277 357 q 372 348 427 300 q 483 252 483 183 q 483 95 413 43 q 343 -9 223 -9 q 125 -9 67 30 q 9 69 9 134 q 9 171 31 196 q 54 220 88 220 q 123 220 146 200 q 169 180 169 150 q 169 114 145 90 q 120 65 120 60 q 120 46 144 36 q 167 27 204 27 q 268 27 295 64 q 322 101 322 191 q 322 266 300 300 q 279 333 231 333 q 224 333 211 332 q 199 330 194 330 q 176 330 167 337 q 158 343 158 356 q 158 368 166 375 q 174 383 187 383 q 192 383 202 382 q 211 382 216 382 q 270 382 295 415 q 320 449 320 522 q 320 600 296 634 q 272 668 219 668 q 180 668 153 650 q 125 632 125 610 q 125 596 149 588 q 153 586 155 586 q 177 579 188 563 q 200 547 200 525 q 200 495 178 475 q 156 454 124 454 q 83 454 59 480 q 34 506 34 551 q 34 618 94 662 q 154 706 247 706 q 353 706 413 658 q 472 610 472 525 q 472 458 422 415 q 371 371 277 357 z"},";":{"x_min":0,"x_max":264,"ha":264,"o":"m 45 -156 q 89 -135 115 -107 q 140 -80 140 -52 q 140 -27 116 -17 q 114 -16 113 -15 q 82 -1 67 18 q 53 37 53 64 q 53 96 76 120 q 100 143 132 143 q 172 143 198 110 q 223 77 223 22 q 223 -45 179 -102 q 136 -159 62 -188 z m 56 429 q 56 460 78 483 q 100 505 131 505 q 163 505 185 483 q 207 460 207 429 q 207 397 185 375 q 163 353 131 353 q 101 353 78 375 q 56 398 56 429 z"},"J":{"x_min":0,"x_max":562,"ha":562,"o":"m 311 616 q 311 649 300 661 q 289 674 260 674 l 214 674 l 214 701 l 549 701 l 549 674 l 503 674 q 474 674 463 662 q 452 649 452 616 l 452 228 q 452 93 401 39 q 351 -16 231 -16 q 129 -16 73 24 q 17 64 17 137 q 17 187 45 217 q 72 248 116 248 q 153 248 177 225 q 200 202 200 167 q 200 127 160 103 q 120 80 120 69 q 120 48 144 33 q 168 19 206 19 q 262 19 286 58 q 311 97 311 187 z"},"V":{"x_min":0,"x_max":698,"ha":698,"o":"m 331 -6 l 119 572 q 95 635 73 654 q 50 674 9 674 l 6 674 l 6 701 l 345 701 l 345 674 l 306 674 q 274 674 259 666 q 243 658 243 642 q 243 637 244 630 q 246 623 248 615 l 405 178 l 547 587 q 551 599 554 610 q 556 621 556 628 q 556 653 541 663 q 525 674 488 674 l 470 674 l 470 701 l 698 701 l 698 674 l 694 674 q 623 674 570 524 l 566 512 l 384 -6 z"},"\"":{"x_min":0,"x_max":339,"ha":339,"o":"m 242 418 l 206 642 q 206 646 205 650 q 205 654 205 661 q 205 686 218 700 q 230 714 252 714 q 274 714 286 700 q 299 687 299 662 q 299 656 297 645 q 297 643 297 642 l 261 418 z m 78 418 l 42 642 q 42 646 41 650 q 41 654 41 661 q 41 687 53 700 q 65 714 87 714 q 110 714 122 700 q 134 687 134 661 q 134 653 134 649 q 133 645 133 642 l 97 418 z"},"7":{"x_min":0,"x_max":528,"ha":528,"o":"m 73 706 l 489 706 q 489 691 488 677 q 488 673 488 672 q 488 611 467 538 q 447 465 414 412 q 405 398 389 372 q 304 239 304 160 q 304 142 310 115 q 315 88 315 77 q 315 37 292 14 q 269 -9 227 -9 q 186 -9 160 20 q 135 49 135 96 q 135 161 176 230 q 216 299 296 369 q 366 431 395 479 q 423 528 428 586 l 201 586 q 156 586 131 561 q 106 536 95 479 l 53 479 q 59 529 64 584 q 69 639 73 706 z"},"S":{"x_min":0,"x_max":627,"ha":627,"o":"m 58 0 l 63 272 l 96 272 q 124 158 194 91 q 264 24 353 24 q 408 24 443 55 q 478 87 478 136 q 478 188 439 223 q 401 259 265 311 q 145 357 100 403 q 56 449 56 519 q 56 603 120 660 q 183 718 276 718 q 345 718 412 686 q 479 655 479 655 q 488 655 496 664 q 504 674 519 705 l 548 705 l 548 465 l 519 465 q 485 567 425 624 q 365 681 292 681 q 238 681 203 652 q 168 624 168 579 q 168 504 327 443 q 341 438 349 435 q 502 376 546 330 q 589 283 589 207 q 589 109 523 46 q 458 -16 354 -16 q 278 -16 209 21 q 140 58 139 58 q 126 58 116 47 q 106 35 91 0 z"},"}":{"x_min":0,"x_max":500,"ha":500,"o":"m 281 571 l 281 473 q 281 394 309 364 q 336 334 414 327 l 414 294 q 337 288 309 258 q 281 228 281 148 l 281 50 q 281 -46 240 -83 q 199 -119 90 -119 l 85 -119 l 85 -91 q 148 -90 171 -65 q 194 -40 194 37 l 194 104 q 194 215 221 255 q 249 294 323 310 q 250 326 222 365 q 194 405 194 516 l 194 583 q 194 660 171 686 q 147 711 85 712 l 85 740 l 90 740 q 199 740 240 704 q 281 667 281 571 z"},"Z":{"x_min":0,"x_max":633,"ha":633,"o":"m 576 241 l 564 0 l 40 0 l 40 30 l 416 669 l 354 669 q 233 669 171 625 q 110 582 89 484 l 59 484 l 59 701 l 577 701 l 577 678 l 200 36 q 208 36 223 36 q 237 35 244 35 q 392 35 459 83 q 526 130 538 241 z"},"x":{"x_min":0,"x_max":579,"ha":579,"o":"m 454 118 q 492 62 517 46 q 542 30 576 30 l 581 30 l 581 0 l 269 0 l 269 30 l 285 30 q 312 30 322 36 q 332 42 332 56 q 332 62 328 71 q 324 80 316 93 l 250 196 l 206 137 q 176 97 167 81 q 158 65 158 55 q 158 42 167 36 q 177 30 196 30 l 211 30 l 211 0 l 6 0 l 6 30 l 11 30 q 47 30 75 47 q 103 64 151 126 l 230 228 l 129 377 q 91 433 67 449 q 42 465 8 465 l 3 465 l 3 493 l 315 493 l 315 465 l 297 465 q 271 465 261 460 q 250 455 250 443 q 250 430 264 407 q 266 404 267 402 l 328 306 l 369 358 q 395 392 406 411 q 418 431 418 442 q 418 454 408 459 q 398 465 379 465 l 367 465 l 367 493 l 560 493 l 560 465 l 558 465 q 498 465 422 370 l 422 369 l 348 275 z"},")":{"x_min":0,"x_max":427,"ha":427,"o":"m 73 718 q 200 642 272 518 q 344 394 344 253 q 344 113 272 -11 q 200 -136 73 -212 l 73 -184 q 138 -118 167 -15 q 196 87 196 253 q 196 419 167 521 q 138 623 73 689 z"},"&":{"x_min":0,"x_max":743,"ha":743,"o":"m 245 361 q 208 332 189 297 q 171 262 171 222 q 171 154 220 106 q 270 58 342 58 q 370 58 392 64 q 414 70 429 82 q 381 134 334 205 q 288 275 245 361 z m 343 451 q 398 473 427 508 q 456 543 456 589 q 456 625 432 649 q 409 674 375 674 q 339 674 319 652 q 298 630 298 593 q 298 566 310 530 q 321 493 343 451 z m 512 172 q 541 208 556 243 q 571 278 571 309 q 571 337 556 350 q 541 362 505 362 q 505 362 504 362 q 500 363 497 363 l 497 388 l 714 388 l 714 361 l 704 361 q 652 361 610 275 q 568 190 533 146 q 583 86 635 54 q 687 23 737 22 l 737 -2 q 708 -7 685 -10 q 662 -12 642 -12 q 588 -12 542 6 q 496 24 454 61 q 412 22 363 2 q 314 -17 259 -17 q 166 -17 107 35 q 48 87 48 169 q 48 237 94 293 q 140 350 231 394 q 213 436 204 469 q 196 502 196 530 q 196 606 245 656 q 293 706 367 706 q 433 706 473 672 q 514 638 514 583 q 514 532 475 493 q 436 454 355 422 q 406 322 441 267 q 477 212 512 172 z"},"_":{"x_min":0,"x_max":500,"ha":500,"o":"m 500 -152 l 500 -236 l 0 -236 l 0 -152 z"},"v":{"x_min":0,"x_max":515,"ha":515,"o":"m -16 493 l 262 493 l 262 465 l 243 465 q 212 465 201 458 q 189 452 189 435 q 189 432 190 428 q 190 424 192 419 l 296 145 l 383 371 q 389 386 393 402 q 396 418 396 429 q 396 448 384 456 q 372 465 345 465 l 330 465 l 330 493 l 514 493 l 514 465 l 510 465 q 457 465 413 350 l 408 338 l 274 -5 l 218 -5 l 66 384 q 44 438 29 452 q 14 465 -13 465 l -16 465 z"},"O":{"x_min":0,"x_max":721,"ha":721,"o":"m 194 352 q 194 176 233 98 q 273 20 360 20 q 447 20 487 99 q 527 178 527 352 q 527 527 487 606 q 447 685 360 685 q 273 685 233 606 q 194 528 194 352 z m 360 -16 q 220 -16 126 88 q 32 192 32 351 q 32 510 126 614 q 219 718 360 718 q 500 718 595 613 q 689 509 689 351 q 689 193 595 89 q 500 -16 360 -16 z"},"(":{"x_min":0,"x_max":427,"ha":427,"o":"m 354 718 l 354 689 q 289 623 260 521 q 231 419 231 253 q 231 87 260 -15 q 289 -118 354 -184 l 354 -212 q 228 -136 155 -11 q 83 113 83 253 q 83 394 155 518 q 228 642 354 718 z"},"C":{"x_min":0,"x_max":678,"ha":678,"o":"m 587 709 l 617 709 l 617 464 l 587 464 q 562 564 506 622 q 449 679 375 679 q 289 679 243 597 q 197 515 197 362 q 197 210 248 132 q 299 53 397 53 q 476 53 525 110 q 575 167 583 267 l 619 267 q 610 130 542 57 q 475 -16 357 -16 q 219 -16 125 86 q 32 189 32 345 q 32 504 127 611 q 222 718 360 718 q 437 718 517 670 q 537 658 542 658 q 551 658 562 670 q 573 682 587 709 z"},"W":{"x_min":0,"x_max":1053,"ha":1053,"o":"m 532 435 l 379 -6 l 320 -6 l 109 572 q 87 632 63 653 q 40 674 -2 674 l -5 674 l -5 701 l 312 701 l 312 674 l 282 674 q 257 674 245 666 q 233 658 233 642 q 233 637 234 629 q 236 621 238 615 l 398 170 l 510 493 l 475 594 q 457 648 438 661 q 419 674 375 674 l 369 674 l 369 701 l 707 701 l 707 674 l 659 674 q 631 674 618 666 q 605 658 605 641 q 605 636 606 629 q 608 623 611 615 l 770 170 l 914 587 q 918 599 921 609 q 923 619 923 625 q 923 652 906 663 q 890 674 850 674 l 837 674 l 837 701 l 1066 701 l 1066 674 l 1062 674 q 990 674 940 530 q 936 518 934 512 l 751 -6 l 693 -6 z"},"A":{"x_min":0,"x_max":705,"ha":705,"o":"m 196 221 l 413 221 l 305 536 z m -3 0 l -3 30 l 1 30 q 47 30 76 62 q 106 94 142 196 l 318 701 l 389 701 l 582 153 q 611 70 632 50 q 652 30 689 30 l 700 30 l 706 30 l 706 0 l 380 0 l 380 30 l 402 30 q 436 30 450 38 q 464 46 464 65 q 464 71 461 81 q 458 91 451 110 l 428 175 l 180 175 l 168 142 q 160 120 156 101 q 151 83 151 73 q 151 50 166 40 q 181 30 217 30 l 229 30 l 229 0 z"},"f":{"x_min":0,"x_max":323,"ha":323,"o":"m 218 82 q 218 46 226 38 q 234 30 260 30 l 295 30 l 295 0 l 13 0 l 13 30 l 42 30 q 67 30 76 38 q 84 46 84 82 l 84 447 l 13 447 l 13 493 l 84 493 l 84 538 q 84 630 116 674 q 147 718 214 718 q 267 718 298 693 q 329 668 329 626 q 329 601 312 584 q 295 567 269 567 q 245 567 229 581 q 213 596 213 617 q 213 633 224 646 q 235 658 235 663 q 235 672 229 679 q 222 685 212 685 q 194 685 182 671 q 171 657 171 634 q 171 611 191 566 q 212 521 218 493 l 297 493 l 297 447 l 218 447 z"},"Q":{"x_min":0,"x_max":721,"ha":721,"o":"m 319 26 q 330 23 342 21 q 354 20 367 20 q 379 20 388 22 q 398 23 405 27 q 404 53 393 67 q 381 80 359 80 q 341 80 330 66 q 319 53 319 31 z m 474 76 q 501 110 514 178 q 527 246 527 352 q 527 527 487 606 q 447 685 360 685 q 273 685 233 606 q 194 528 194 352 q 194 215 215 143 q 237 70 285 42 q 291 87 317 113 q 344 138 385 138 q 417 138 441 122 q 464 105 474 76 z m 409 -12 q 393 -14 379 -15 q 365 -16 360 -16 q 220 -16 126 88 q 32 192 32 351 q 32 510 126 614 q 219 718 360 718 q 500 718 595 613 q 689 509 689 351 q 689 240 640 154 q 591 67 500 16 q 504 -9 521 -24 q 537 -39 560 -39 q 582 -39 596 -26 q 610 -13 619 14 l 651 14 l 651 -3 q 651 -61 618 -97 q 585 -133 533 -133 q 482 -133 448 -100 q 414 -66 409 -12 z"},"w":{"x_min":0,"x_max":825,"ha":825,"o":"m 73 384 q 55 436 40 450 q 24 465 -4 465 l -9 465 l -9 493 l 268 493 l 268 465 l 250 465 q 222 465 208 458 q 195 450 195 435 q 195 432 197 424 q 199 420 199 419 l 291 146 l 387 392 q 375 436 360 450 q 345 465 314 465 l 310 465 l 310 493 l 586 493 l 586 465 l 567 465 q 539 465 526 458 q 513 451 513 435 q 513 432 514 428 q 515 424 516 419 l 610 148 l 695 371 q 701 387 705 404 q 709 420 709 430 q 709 448 697 457 q 685 465 657 465 l 642 465 l 642 493 l 827 493 l 827 465 q 770 465 721 341 l 720 338 l 586 -5 l 530 -5 l 404 347 l 267 -5 l 211 -5 z"},"-":{"x_min":0,"x_max":331,"ha":331,"o":"m 23 303 l 308 303 l 308 201 l 23 201 z"},"E":{"x_min":0,"x_max":716,"ha":716,"o":"m 14 0 l 14 30 l 61 30 q 90 30 101 42 q 112 55 112 88 l 112 616 q 112 649 101 662 q 90 674 61 674 l 14 674 l 14 701 l 643 701 l 660 493 l 620 493 q 603 588 542 628 q 480 668 346 668 q 285 668 269 659 q 253 650 253 605 l 253 594 l 253 407 l 287 407 q 378 407 419 438 q 460 470 464 541 l 504 541 l 504 237 l 464 237 q 459 309 418 340 q 377 371 287 371 l 253 371 l 253 107 q 253 57 273 45 q 293 33 353 33 q 467 33 537 82 q 607 130 627 223 l 666 223 l 646 0 z"},"s":{"x_min":0,"x_max":521,"ha":521,"o":"m 406 505 l 437 505 l 437 333 l 406 333 q 384 395 339 432 q 293 469 239 469 q 208 469 185 451 q 162 432 162 408 q 162 378 182 360 q 203 341 264 321 l 271 318 q 474 250 474 149 q 474 81 424 35 q 374 -10 298 -10 q 244 -10 190 17 q 136 44 132 44 q 118 44 109 31 q 100 19 98 -4 l 62 -4 l 62 199 l 98 199 q 114 126 167 79 q 219 31 280 31 q 314 31 335 50 q 356 69 356 101 q 356 130 337 148 q 319 167 261 187 q 133 231 96 266 q 58 301 58 355 q 58 418 108 461 q 158 504 233 504 q 271 504 320 487 q 369 470 377 470 q 390 470 398 479 q 405 488 406 505 z"},">":{"x_min":0,"x_max":833,"ha":833,"o":"m 704 337 l 704 259 l 129 23 l 129 112 l 585 298 l 129 484 l 129 574 z"},"l":{"x_min":0,"x_max":304,"ha":304,"o":"m 292 30 l 292 0 l 18 0 l 18 30 l 46 30 q 73 30 80 38 q 88 46 88 82 l 88 631 q 88 661 78 669 q 68 678 36 678 l 18 678 l 18 706 l 52 706 q 98 706 140 708 q 183 709 222 713 l 222 82 q 222 46 229 38 q 237 30 264 30 z"},"8":{"x_min":0,"x_max":528,"ha":528,"o":"m 329 427 q 367 451 388 483 q 409 515 409 549 q 409 603 371 636 q 332 670 270 670 q 216 670 184 645 q 152 620 152 579 q 152 542 185 511 q 218 480 329 427 z m 186 331 q 143 299 122 264 q 102 229 102 186 q 102 116 148 71 q 194 26 266 26 q 327 26 363 58 q 399 91 399 146 q 399 219 222 312 q 199 324 186 331 z m 156 348 q 98 385 69 427 q 41 469 41 518 q 41 602 105 654 q 169 705 272 705 q 363 705 423 659 q 482 614 482 546 q 482 499 452 464 q 423 430 364 410 q 440 370 475 322 q 509 275 509 210 q 509 113 440 52 q 372 -9 262 -9 q 152 -9 87 43 q 21 95 21 181 q 21 238 55 280 q 89 322 156 348 z"},"\\":{"x_min":0,"x_max":377,"ha":377,"o":"m 418 -93 l 352 -93 l 0 701 l 66 701 z"},"e":{"x_min":0,"x_max":544,"ha":544,"o":"m 523 236 l 171 236 l 171 229 q 171 141 209 93 q 248 45 318 45 q 376 45 417 79 q 458 112 469 169 l 510 169 q 501 85 442 36 q 383 -12 288 -12 q 171 -12 97 60 q 23 131 23 243 q 23 355 95 429 q 167 503 277 503 q 386 503 452 432 q 517 361 523 236 z m 171 279 l 363 279 q 361 385 341 426 q 320 467 272 467 q 219 467 196 423 q 172 379 171 279 z"},"b":{"x_min":0,"x_max":582,"ha":582,"o":"m 2 710 l 26 710 q 65 710 110 712 q 154 714 206 718 l 206 425 q 228 462 263 483 q 298 504 339 504 q 427 504 488 433 q 549 362 549 257 q 549 141 481 64 q 413 -12 312 -12 q 225 -12 164 47 q 151 61 146 61 q 140 61 129 45 q 119 29 107 0 l 68 0 q 70 35 71 70 q 72 105 72 141 l 72 624 q 72 664 62 673 q 53 681 23 681 l 2 681 z m 298 444 q 246 444 225 401 q 204 358 204 232 q 204 106 222 65 q 241 25 288 25 q 341 25 369 85 q 397 145 397 258 q 397 350 372 397 q 347 444 298 444 z"},"%":{"x_min":0,"x_max":821,"ha":821,"o":"m 225 0 l 536 697 l 594 697 l 283 0 z m 648 -8 q 584 -8 541 56 q 497 120 497 216 q 497 313 541 377 q 584 441 648 441 q 712 441 755 377 q 798 314 798 216 q 798 119 755 55 q 712 -8 648 -8 z m 648 13 q 675 13 686 53 q 696 92 696 216 q 696 340 686 380 q 675 420 648 420 q 621 420 611 380 q 600 340 600 216 q 600 93 611 53 q 621 13 648 13 z m 173 277 q 200 277 211 317 q 221 357 221 481 q 221 604 211 644 q 200 684 173 684 q 146 684 135 644 q 125 604 125 481 q 125 357 135 317 q 146 277 173 277 z m 173 256 q 110 256 66 320 q 22 384 22 481 q 22 578 66 642 q 109 706 173 706 q 237 706 280 643 q 323 579 323 481 q 323 383 280 320 q 237 256 173 256 z"},"m":{"x_min":0,"x_max":880,"ha":880,"o":"m 87 418 q 87 448 77 456 q 67 465 36 465 l 17 465 l 17 493 l 46 493 q 88 493 132 495 q 175 497 219 500 l 219 412 q 248 455 284 477 q 321 499 363 499 q 411 499 444 476 q 478 453 497 406 q 533 454 571 476 q 608 499 651 499 q 728 499 763 448 q 798 396 798 283 l 798 82 q 798 46 805 38 q 813 30 840 30 l 869 30 l 869 0 l 601 0 l 601 30 l 622 30 q 648 30 656 38 q 663 46 663 82 l 663 324 q 663 377 648 402 q 634 426 602 426 q 575 426 550 408 q 526 391 510 359 l 510 82 q 510 46 517 38 q 525 30 552 30 l 572 30 l 572 0 l 313 0 l 313 30 l 334 30 q 360 30 367 38 q 375 46 375 82 l 375 324 q 375 377 360 402 q 346 426 314 426 q 287 426 262 408 q 238 391 222 359 l 222 82 q 222 46 229 38 q 237 30 264 30 l 283 30 l 283 0 l 17 0 l 17 30 l 46 30 q 72 30 80 38 q 87 46 87 82 z"},"#":{"x_min":0,"x_max":769,"ha":769,"o":"m 477 419 l 343 419 l 297 290 l 431 290 z m 449 713 l 373 500 l 504 500 l 580 713 l 669 713 l 593 500 l 735 500 l 706 419 l 564 419 l 519 291 l 669 291 l 640 209 l 490 209 l 415 -3 l 325 -3 l 401 209 l 270 209 l 195 -3 l 105 -3 l 181 209 l 34 209 l 63 291 l 210 291 l 255 419 l 99 419 l 129 500 l 284 500 l 360 713 z"},",":{"x_min":0,"x_max":264,"ha":264,"o":"m 45 -156 q 89 -135 115 -107 q 140 -80 140 -52 q 140 -27 116 -17 q 114 -16 113 -15 q 82 -1 67 18 q 53 37 53 64 q 53 96 76 120 q 100 143 132 143 q 172 143 198 110 q 223 77 223 22 q 223 -45 179 -102 q 136 -159 62 -188 z"},"n":{"x_min":0,"x_max":591,"ha":591,"o":"m 17 0 l 17 30 l 46 30 q 72 30 80 38 q 87 46 87 82 l 87 418 q 87 448 77 456 q 67 465 36 465 l 17 465 l 17 493 l 46 493 q 88 493 132 495 q 175 497 219 500 l 219 412 q 248 455 284 477 q 321 499 363 499 q 439 499 475 448 q 510 396 510 283 l 510 82 q 510 46 517 38 q 525 30 552 30 l 581 30 l 581 0 l 313 0 l 313 30 l 334 30 q 360 30 367 38 q 375 46 375 82 l 375 324 q 375 377 360 402 q 346 426 314 426 q 287 426 262 408 q 238 391 222 359 l 222 82 q 222 46 229 38 q 237 30 264 30 l 283 30 l 283 0 z"},"h":{"x_min":0,"x_max":591,"ha":591,"o":"m 17 0 l 17 30 l 46 30 q 72 30 80 38 q 87 46 87 82 l 87 631 q 87 661 77 670 q 67 678 36 678 l 17 678 l 17 706 l 46 706 q 88 706 132 708 q 175 709 219 713 l 219 412 q 248 455 284 477 q 321 499 363 499 q 439 499 475 448 q 510 396 510 283 l 510 82 q 510 46 517 38 q 525 30 552 30 l 581 30 l 581 0 l 313 0 l 313 30 l 334 30 q 360 30 367 38 q 375 46 375 82 l 375 324 q 375 377 360 402 q 346 426 314 426 q 287 426 262 408 q 238 391 222 359 l 222 82 q 222 46 229 38 q 237 30 264 30 l 283 30 l 283 0 z"},"z":{"x_min":0,"x_max":539,"ha":539,"o":"m 56 313 l 58 493 l 477 493 l 477 462 l 193 35 l 236 35 q 340 35 392 79 q 444 122 449 213 l 487 213 l 479 0 l 40 0 l 40 29 l 324 459 l 270 459 q 187 459 142 423 q 98 387 90 313 z"},"B":{"x_min":0,"x_max":734,"ha":734,"o":"m 253 404 l 292 404 l 340 404 q 438 404 473 433 q 507 462 507 539 q 507 612 475 639 q 443 667 348 667 l 325 667 q 273 667 263 658 q 253 650 253 615 l 253 611 z m 253 368 l 253 100 q 253 57 266 46 q 278 35 339 35 q 443 35 483 70 q 523 105 523 192 q 523 292 475 331 q 427 369 299 369 q 280 369 271 369 q 262 369 253 368 z m 14 0 l 14 30 l 61 30 q 90 30 101 42 q 112 55 112 88 l 112 616 q 112 649 101 662 q 90 674 61 674 l 14 674 l 14 701 l 423 701 q 550 701 607 663 q 664 625 664 541 q 664 467 612 429 q 560 392 447 386 q 566 381 628 331 q 689 281 689 189 q 689 93 619 46 q 550 0 406 0 z"},"K":{"x_min":0,"x_max":766,"ha":766,"o":"m 253 89 q 253 55 264 43 q 274 31 303 31 l 350 31 l 350 0 l 14 0 l 14 31 l 61 31 q 90 31 101 43 q 112 56 112 89 l 112 616 q 112 649 101 662 q 90 674 61 674 l 14 674 l 14 701 l 350 701 l 350 674 l 303 674 q 274 674 264 662 q 253 650 253 616 l 253 375 l 418 525 q 474 576 490 598 q 507 620 507 638 q 507 657 491 666 q 476 674 440 674 l 425 674 l 425 701 l 730 701 l 730 674 q 683 673 640 651 q 597 630 515 555 l 412 462 l 629 132 q 670 69 698 50 q 725 31 764 31 l 772 31 l 772 0 l 415 0 l 415 31 l 424 31 q 462 31 478 39 q 494 46 494 64 q 494 72 490 83 q 485 93 472 114 l 310 373 l 253 323 z"},"R":{"x_min":0,"x_max":759,"ha":759,"o":"m 252 394 l 353 394 q 430 394 467 429 q 504 464 504 537 q 504 610 470 639 q 436 668 343 668 q 284 668 268 660 q 252 651 252 614 l 252 606 z m 252 357 l 252 88 q 252 55 263 42 q 275 30 304 30 l 350 30 l 350 0 l 14 0 l 14 30 l 61 30 q 90 30 101 42 q 112 55 112 88 l 112 616 q 112 649 101 662 q 90 674 61 674 l 14 674 l 14 701 l 381 701 q 530 701 597 663 q 665 625 665 542 q 665 463 611 425 q 556 386 429 377 q 531 367 574 331 q 618 296 627 219 q 630 190 631 143 q 633 55 669 55 q 689 55 698 73 q 706 91 706 134 l 706 142 l 744 142 l 744 123 q 744 51 713 17 q 681 -16 613 -16 q 544 -16 510 26 q 476 69 476 155 q 476 159 477 181 q 477 203 477 221 q 477 301 439 330 q 400 358 292 358 q 286 358 273 357 q 260 357 252 357 z"},"T":{"x_min":0,"x_max":687,"ha":687,"o":"m 414 89 q 414 56 425 43 q 436 31 465 31 l 537 31 l 537 0 l 150 0 l 150 31 l 222 31 q 251 31 262 43 q 273 56 273 89 l 273 578 q 273 627 260 648 q 248 669 219 669 q 171 669 126 607 q 80 545 60 448 l 22 448 l 33 701 l 654 701 l 665 448 l 627 448 q 607 545 561 607 q 516 669 468 669 q 439 669 427 648 q 414 627 414 578 z"},"P":{"x_min":0,"x_max":668,"ha":668,"o":"m 253 360 q 261 359 269 359 q 277 359 293 359 q 394 359 433 392 q 472 424 472 506 q 472 594 437 630 q 402 667 318 667 q 275 667 264 659 q 253 650 253 620 l 253 608 z m 392 701 q 511 701 574 655 q 637 608 637 521 q 637 416 563 371 q 489 325 312 325 l 253 325 l 253 88 q 253 55 264 42 q 275 30 304 30 l 364 30 l 364 0 l 14 0 l 14 30 l 61 30 q 90 30 101 42 q 112 55 112 88 l 112 616 q 112 649 101 662 q 90 674 61 674 l 14 674 l 14 701 z"},"|":{"x_min":0,"x_max":500,"ha":500,"o":"m 294 764 l 294 -236 l 207 -236 l 207 764 z"},"t":{"x_min":0,"x_max":375,"ha":375,"o":"m 87 448 l 21 448 l 21 487 q 91 502 133 551 q 176 599 188 678 l 228 678 q 225 621 224 585 q 222 549 222 533 l 222 493 l 329 493 l 329 448 l 222 448 l 222 145 q 222 87 231 69 q 241 52 264 52 q 285 52 294 68 q 303 83 303 122 l 303 138 l 342 138 q 342 130 343 122 q 343 114 343 107 q 343 46 312 17 q 281 -12 216 -12 q 149 -12 118 26 q 87 63 87 144 z"},"M":{"x_min":0,"x_max":896,"ha":896,"o":"m 14 0 l 14 30 l 22 30 q 73 30 92 59 q 112 89 112 192 l 112 616 q 112 649 101 662 q 90 674 61 674 l 15 674 l 15 701 l 283 701 l 454 185 l 619 701 l 881 701 l 881 674 l 835 674 q 806 674 795 662 q 784 649 784 616 l 784 88 q 784 55 795 42 q 806 30 835 30 l 881 30 l 881 0 l 553 0 l 553 30 l 599 30 q 628 30 639 42 q 650 55 650 88 l 650 657 l 439 -6 l 382 -6 l 157 663 l 157 199 q 157 85 180 58 q 204 31 268 30 l 268 0 z"},"g":{"x_min":0,"x_max":560,"ha":560,"o":"m 147 -49 q 125 -54 114 -67 q 102 -80 102 -98 q 102 -136 152 -160 q 202 -184 283 -184 q 353 -184 395 -163 q 437 -143 437 -110 q 437 -60 299 -57 q 207 -55 147 -49 z m 195 320 q 195 234 211 203 q 228 173 269 173 q 310 173 326 203 q 343 234 343 320 q 343 403 326 436 q 310 468 269 468 q 229 468 212 436 q 195 403 195 320 z m 378 480 q 400 520 433 543 q 465 567 498 567 q 532 567 552 548 q 572 530 572 498 q 572 471 555 452 q 538 434 512 434 q 489 434 466 458 q 444 482 434 482 q 427 482 422 479 q 417 477 407 467 q 448 438 469 400 q 490 362 490 317 q 490 235 429 186 q 369 136 269 136 q 243 136 219 140 q 196 143 172 150 q 160 139 154 128 q 148 117 148 106 q 148 84 170 74 q 191 64 240 64 q 254 64 290 65 q 325 67 346 67 q 443 67 491 34 q 539 2 539 -64 q 539 -137 467 -178 q 396 -220 269 -220 q 154 -220 84 -190 q 14 -159 14 -110 q 14 -81 38 -62 q 62 -42 109 -35 q 77 -22 59 1 q 41 25 41 54 q 41 88 68 117 q 95 146 144 164 q 97 192 72 233 q 47 273 47 321 q 47 398 108 451 q 169 504 259 504 q 292 504 322 498 q 351 492 378 480 z"},"j":{"x_min":0,"x_max":317,"ha":317,"o":"m 97 418 q 97 447 87 456 q 77 465 45 465 l 27 465 l 27 493 l 61 493 q 107 493 150 495 q 192 497 231 500 l 231 -51 q 231 -131 195 -176 q 160 -220 96 -220 q 48 -220 15 -193 q -17 -166 -17 -127 q -17 -95 0 -76 q 17 -57 45 -57 q 66 -57 81 -72 q 95 -87 95 -110 q 95 -127 82 -144 q 68 -160 68 -169 q 68 -176 75 -182 q 82 -187 92 -187 q 116 -187 131 -173 q 145 -158 145 -134 q 145 -118 121 -42 q 97 34 97 98 z m 70 628 q 70 660 93 683 q 116 706 149 706 q 182 706 205 684 q 227 661 227 628 q 227 595 204 572 q 181 549 149 549 q 117 549 93 572 q 70 596 70 628 z"},"i":{"x_min":0,"x_max":314,"ha":314,"o":"m 66 628 q 66 660 89 683 q 112 706 144 706 q 177 706 200 683 q 223 661 223 628 q 223 596 200 572 q 176 549 144 549 q 112 549 89 572 q 66 596 66 628 z m 297 30 l 297 0 l 22 0 l 22 30 l 51 30 q 78 30 85 38 q 93 46 93 82 l 93 418 q 93 447 83 456 q 73 465 41 465 l 22 465 l 22 493 l 56 493 q 103 493 145 495 q 188 497 227 500 l 227 82 q 227 46 235 38 q 242 30 269 30 z"},"y":{"x_min":0,"x_max":546,"ha":546,"o":"m 254 12 l 92 377 q 89 383 85 393 q 54 465 11 465 l 2 465 l 2 493 l 281 493 l 281 465 l 263 465 q 237 465 224 458 q 211 451 211 437 q 211 431 213 423 q 216 415 221 403 l 320 171 l 397 372 q 404 390 407 405 q 411 419 411 429 q 411 447 398 456 q 385 465 358 465 l 338 465 l 338 493 l 552 493 l 552 465 q 512 464 483 440 q 455 416 433 362 l 246 -96 q 219 -164 186 -192 q 153 -220 104 -220 q 56 -220 23 -190 q -10 -161 -10 -116 q -10 -88 10 -68 q 29 -49 57 -49 q 86 -49 107 -68 q 128 -87 128 -114 q 128 -137 112 -153 q 95 -170 95 -174 q 95 -180 104 -185 q 112 -190 124 -190 q 151 -190 173 -165 q 194 -140 224 -64 z"},"@":{"x_min":0,"x_max":986,"ha":986,"o":"m 637 402 l 662 485 l 746 485 l 662 184 l 661 181 q 654 152 654 137 q 654 113 665 100 q 675 87 694 87 q 710 87 735 98 q 759 108 780 125 q 833 168 862 233 q 891 299 891 378 q 891 514 798 598 q 705 681 552 681 q 467 681 391 649 q 315 618 258 559 q 198 498 168 419 q 138 341 138 245 q 138 161 167 95 q 196 30 255 -19 q 307 -62 375 -85 q 444 -108 523 -108 q 604 -108 680 -83 q 755 -58 828 -6 l 846 -29 q 774 -83 692 -111 q 611 -138 523 -138 q 431 -138 354 -115 q 276 -93 219 -50 q 146 5 107 85 q 68 166 68 262 q 68 361 110 448 q 152 535 232 601 q 298 655 377 683 q 457 711 546 711 q 716 711 818 619 q 920 527 920 374 q 920 296 891 229 q 862 161 809 113 q 779 86 746 73 q 713 59 681 59 q 633 59 607 85 q 580 110 577 159 q 546 108 510 84 q 474 60 429 60 q 364 60 325 105 q 287 150 287 226 q 287 281 311 333 q 335 385 380 428 q 413 460 452 477 q 491 493 531 493 q 575 493 602 470 q 629 447 637 402 z m 610 377 q 610 417 592 442 q 573 466 543 466 q 512 466 486 444 q 460 422 434 372 q 406 320 392 270 q 377 220 377 179 q 377 139 395 114 q 413 90 441 90 q 471 90 497 110 q 523 130 550 175 q 577 222 594 277 q 610 333 610 377 z"},".":{"x_min":0,"x_max":264,"ha":264,"o":"m 56 64 q 56 96 78 118 q 100 140 131 140 q 163 140 185 118 q 207 96 207 64 q 207 32 185 10 q 163 -12 131 -12 q 100 -12 78 10 q 56 33 56 64 z"},"p":{"x_min":0,"x_max":574,"ha":574,"o":"m 205 205 q 205 125 226 89 q 247 53 293 53 q 342 53 366 102 q 390 151 390 254 q 390 344 366 393 q 342 442 298 442 q 257 442 231 402 q 205 362 205 296 z m 207 -127 q 207 -162 215 -170 q 222 -178 249 -178 l 290 -178 l 290 -208 l 2 -208 l 2 -178 l 31 -178 q 58 -178 65 -170 q 72 -163 72 -127 l 72 418 q 72 448 62 456 q 52 465 21 465 l 2 465 l 2 493 l 31 493 q 73 493 117 495 q 160 497 204 500 l 204 412 q 229 455 266 477 q 304 499 351 499 q 433 499 487 429 q 541 358 541 248 q 541 137 484 65 q 427 -7 340 -7 q 299 -7 266 9 q 233 25 207 59 z"},"X":{"x_min":0,"x_max":708,"ha":708,"o":"m 140 584 q 107 639 82 656 q 56 674 17 674 l 7 674 l 7 701 l 353 701 l 353 674 q 349 674 341 673 q 333 673 330 673 q 298 673 285 666 q 272 660 272 644 q 272 637 275 630 q 277 624 286 609 l 392 432 l 473 553 q 495 586 504 605 q 513 624 513 637 q 513 657 499 665 q 484 674 451 674 l 445 674 l 445 701 l 687 701 l 687 674 q 640 674 607 653 q 574 631 532 569 l 415 394 l 591 102 q 614 63 642 46 q 669 30 711 30 l 715 30 l 715 0 l 357 0 l 357 30 l 374 30 q 416 30 430 37 q 445 44 445 63 q 445 74 442 84 q 439 93 432 104 l 312 299 l 202 134 q 200 131 196 125 q 167 84 167 66 q 167 47 182 39 q 196 30 229 30 l 241 30 l 241 0 l -6 0 l -6 30 l 0 30 q 43 30 85 63 q 127 97 181 176 l 289 336 z"},"*":{"x_min":0,"x_max":417,"ha":417,"o":"m 189 538 l 182 516 q 150 512 125 510 q 100 508 88 508 q 56 508 38 521 q 19 535 19 557 q 19 583 33 600 q 48 616 71 616 q 88 616 111 602 q 133 587 189 538 z m 181 506 l 200 493 q 181 398 165 373 q 150 348 123 348 q 102 348 85 364 q 68 380 68 401 q 68 424 89 445 q 110 465 181 506 z m 231 506 q 303 464 324 444 q 345 423 345 401 q 345 380 328 364 q 311 348 289 348 q 262 348 247 373 q 231 398 212 493 z m 227 538 q 277 584 302 600 q 327 616 345 616 q 369 616 383 600 q 397 584 397 557 q 397 535 378 521 q 360 508 328 508 q 316 508 291 510 q 265 512 234 516 z m 196 547 q 175 592 164 622 q 153 652 153 667 q 153 690 168 705 q 183 719 207 719 q 231 719 246 705 q 261 690 261 667 q 261 654 252 626 q 242 598 220 547 z"},"Y":{"x_min":0,"x_max":692,"ha":692,"o":"m 426 89 q 426 54 437 42 q 448 30 477 30 l 524 30 l 524 0 l 187 0 l 187 30 l 233 30 q 262 30 273 42 q 284 54 284 89 l 284 281 l 121 589 q 94 639 71 657 q 47 675 11 675 q 9 675 4 674 q -1 674 -4 674 l -4 701 l 331 701 l 331 674 q 324 674 314 673 q 305 673 303 673 q 277 673 265 665 q 253 658 253 641 q 253 634 256 625 q 259 616 268 600 l 403 341 l 501 544 q 520 582 527 602 q 534 623 534 635 q 534 656 517 665 q 500 674 462 674 l 454 674 l 454 701 l 682 701 l 682 674 q 642 673 617 654 q 592 635 564 578 l 426 294 z"},"c":{"x_min":0,"x_max":499,"ha":499,"o":"m 440 168 l 481 168 q 471 83 415 36 q 358 -11 268 -11 q 162 -11 93 62 q 23 135 23 247 q 23 358 95 431 q 167 505 275 505 q 359 505 419 463 q 480 421 480 366 q 480 326 458 303 q 437 280 400 280 q 367 280 346 299 q 324 318 324 347 q 324 368 340 391 q 355 414 355 422 q 355 442 336 455 q 316 468 287 468 q 227 468 200 421 q 174 374 174 265 q 174 149 205 97 q 236 45 304 45 q 359 45 396 78 q 433 111 440 168 z"},"!":{"x_min":0,"x_max":368,"ha":368,"o":"m 207 224 l 161 224 l 103 575 q 101 589 99 602 q 98 615 98 626 q 98 666 123 692 q 147 718 184 718 q 221 718 246 692 q 270 666 270 625 q 270 617 269 604 q 268 591 265 575 z m 108 64 q 108 95 130 118 q 152 140 184 140 q 215 140 237 118 q 259 96 259 64 q 259 32 237 10 q 215 -12 184 -12 q 153 -12 130 10 q 108 33 108 64 z"},"/":{"x_min":0,"x_max":377,"ha":377,"o":"m -41 -93 l 311 701 l 377 701 l 26 -93 z"},"[":{"x_min":0,"x_max":427,"ha":427,"o":"m 382 674 l 301 674 q 261 674 254 663 q 246 651 246 605 l 246 -148 q 246 -185 257 -192 q 269 -199 311 -199 l 382 -199 l 382 -229 l 106 -229 l 106 701 l 382 701 z"},"6":{"x_min":0,"x_max":528,"ha":528,"o":"m 194 354 q 215 389 250 409 q 285 428 326 428 q 401 428 454 368 q 507 308 507 221 q 507 122 442 57 q 377 -9 280 -9 q 170 -9 102 84 q 34 178 34 331 q 34 489 116 598 q 199 706 319 706 q 386 706 432 671 q 477 636 477 587 q 477 551 455 528 q 432 505 398 505 q 368 505 347 522 q 327 540 327 566 q 327 590 345 613 q 363 636 363 644 q 363 657 350 665 q 337 673 317 673 q 253 673 223 610 q 193 547 193 414 q 193 390 193 378 q 193 365 194 354 z m 283 367 q 242 367 221 327 q 201 287 201 205 q 201 108 220 66 q 238 24 280 24 q 320 24 337 63 q 354 102 354 198 q 354 297 338 332 q 322 367 283 367 z"},"r":{"x_min":0,"x_max":433,"ha":433,"o":"m 217 501 q 215 460 213 418 q 212 376 211 333 l 217 333 q 238 419 272 461 q 307 502 357 502 q 390 502 413 480 q 436 458 436 426 q 436 393 416 370 q 396 347 368 347 q 346 347 321 370 q 296 392 284 392 q 258 392 237 321 q 217 249 217 144 q 217 60 225 45 q 233 30 264 30 l 300 30 l 300 0 l 16 0 l 16 30 l 45 30 q 72 30 80 38 q 87 46 87 82 l 87 418 q 87 447 77 456 q 67 465 35 465 l 16 465 l 16 493 q 74 493 124 495 q 173 497 217 501 z"},"2":{"x_min":0,"x_max":528,"ha":528,"o":"m 6 0 q 22 86 61 153 q 100 220 169 280 q 182 292 209 313 q 332 412 332 515 q 332 582 298 622 q 263 662 206 662 q 164 662 134 640 q 103 618 103 591 q 103 578 112 570 q 121 562 138 559 q 174 554 190 538 q 207 523 207 495 q 207 462 182 440 q 158 418 122 418 q 79 418 50 448 q 21 477 21 522 q 21 598 86 653 q 151 708 246 708 q 352 708 418 653 q 484 597 484 509 q 484 440 441 388 q 398 336 301 289 q 292 285 274 276 q 135 210 98 121 l 314 121 q 379 121 406 141 q 434 162 446 217 l 482 217 l 459 0 z"},"{":{"x_min":0,"x_max":500,"ha":500,"o":"m 415 712 q 353 711 329 686 q 306 660 306 583 l 306 516 q 306 406 279 366 q 251 326 177 310 q 251 294 279 254 q 306 214 306 104 l 306 37 q 306 -40 329 -65 q 352 -90 415 -91 l 415 -119 l 410 -119 q 302 -119 261 -83 q 220 -47 220 50 l 220 148 q 220 227 192 257 q 164 288 87 294 l 87 327 q 165 334 192 364 q 220 394 220 473 l 220 571 q 220 668 261 704 q 303 740 415 740 z"},"9":{"x_min":0,"x_max":528,"ha":528,"o":"m 334 343 q 313 308 279 288 q 245 269 202 269 q 127 269 74 329 q 21 390 21 476 q 21 575 86 640 q 150 706 248 706 q 358 706 426 612 q 494 519 494 366 q 494 208 412 99 q 329 -9 209 -9 q 141 -9 96 26 q 51 61 51 112 q 51 146 73 169 q 96 192 130 192 q 160 192 181 174 q 201 157 201 131 q 201 106 183 84 q 164 61 164 54 q 164 41 177 32 q 190 24 211 24 q 275 24 305 87 q 335 149 335 282 q 335 306 335 319 q 334 332 334 343 z m 245 330 q 287 330 307 370 q 327 410 327 492 q 327 589 309 631 q 290 673 248 673 q 208 673 190 634 q 173 594 173 499 q 173 401 189 365 q 205 330 245 330 z"}," ":{"x_min":0,"x_max":264,"ha":264,"o":""},"I":{"x_min":0,"x_max":366,"ha":366,"o":"m 253 88 q 253 55 264 42 q 275 30 304 30 l 350 30 l 350 0 l 15 0 l 15 30 l 61 30 q 90 30 101 42 q 112 55 112 88 l 112 616 q 112 649 101 662 q 90 674 61 674 l 15 674 l 15 701 l 350 701 l 350 674 l 304 674 q 275 674 264 662 q 253 649 253 616 z"},"H":{"x_min":0,"x_max":759,"ha":759,"o":"m 253 375 l 253 88 q 253 55 264 42 q 275 30 304 30 l 350 30 l 350 0 l 14 0 l 14 30 l 61 30 q 90 30 101 42 q 112 55 112 88 l 112 616 q 112 649 101 662 q 90 674 61 674 l 14 674 l 14 701 l 350 701 l 350 674 l 304 674 q 275 674 264 662 q 253 649 253 616 l 253 428 l 506 428 l 506 616 q 506 650 495 662 q 484 674 456 674 l 409 674 l 409 701 l 745 701 l 745 674 l 699 674 q 670 674 659 662 q 648 649 648 616 l 648 88 q 648 55 659 42 q 670 30 699 30 l 745 30 l 745 0 l 409 0 l 409 30 l 456 30 q 484 30 495 42 q 506 54 506 88 l 506 375 z"},"4":{"x_min":0,"x_max":528,"ha":528,"o":"m 72 218 l 261 218 l 261 504 z m 400 107 q 400 61 417 47 q 433 33 485 33 l 501 33 l 501 0 l 150 0 l 150 33 l 176 33 q 228 33 245 47 q 261 61 261 107 l 261 165 l 22 165 l 22 218 l 340 706 l 400 706 l 400 218 l 501 218 l 501 165 l 400 165 z"},"~":{"x_min":0,"x_max":833,"ha":833,"o":"m 747 293 q 697 258 651 241 q 604 224 561 224 q 540 224 516 228 q 492 232 468 241 q 456 245 431 254 q 327 290 275 290 q 235 290 190 271 q 145 253 87 212 l 87 303 q 139 338 186 356 q 232 373 276 373 q 306 373 337 367 q 368 361 419 344 q 426 342 440 336 q 520 308 562 308 q 604 308 648 326 q 693 344 747 383 z"},"D":{"x_min":0,"x_max":745,"ha":745,"o":"m 350 35 q 458 35 505 107 q 552 180 552 351 q 552 522 505 595 q 458 667 350 667 l 317 667 q 281 667 267 655 q 253 642 253 609 l 253 113 q 253 66 266 51 q 280 35 320 35 z m 308 701 q 391 701 439 694 q 488 686 527 669 q 614 630 664 545 q 714 459 714 347 q 714 256 674 178 q 635 101 566 56 q 521 26 462 13 q 404 0 310 0 l 14 0 l 14 30 l 61 30 q 90 30 101 42 q 112 55 112 88 l 112 616 q 112 649 101 662 q 90 674 61 674 l 14 674 l 14 701 z"},"^":{"x_min":0,"x_max":1000,"ha":1000,"o":"m 552 714 l 797 438 l 746 438 l 499 632 l 252 438 l 201 438 l 447 714 z"},"0":{"x_min":0,"x_max":528,"ha":528,"o":"m 264 672 q 218 672 201 610 q 183 547 183 364 q 183 152 200 89 q 218 25 264 25 q 310 25 328 88 q 345 150 345 348 q 345 546 328 609 q 310 672 264 672 z m 264 -9 q 163 -9 95 92 q 28 192 28 348 q 28 504 96 605 q 164 706 264 706 q 364 706 432 604 q 500 503 500 348 q 500 193 432 92 q 364 -9 264 -9 z"},"F":{"x_min":0,"x_max":649,"ha":649,"o":"m 631 701 l 648 493 l 608 493 q 592 586 531 627 q 470 668 344 668 q 286 668 270 659 q 253 649 253 605 l 253 594 l 253 407 l 277 407 q 368 407 408 438 q 449 469 453 541 l 493 541 l 493 237 l 453 237 q 448 309 408 340 q 367 371 277 371 l 253 371 l 253 88 q 253 55 264 42 q 275 30 304 30 l 350 30 l 350 0 l 14 0 l 14 30 l 61 30 q 90 30 101 42 q 112 55 112 88 l 112 616 q 112 649 101 662 q 90 674 61 674 l 14 674 l 14 701 z"},"`":{"x_min":0,"x_max":500,"ha":500,"o":"m 212 696 l 345 559 l 301 559 l 148 639 q 121 654 111 665 q 102 676 102 692 q 102 711 114 724 q 126 736 146 736 q 161 736 176 727 q 191 717 212 696 z"},"k":{"x_min":0,"x_max":626,"ha":626,"o":"m 229 82 q 229 46 237 38 q 244 30 271 30 l 299 30 l 299 0 l 27 0 l 27 30 l 55 30 q 82 30 89 38 q 97 46 97 82 l 97 631 q 97 661 87 669 q 77 678 45 678 l 27 678 l 27 706 l 60 706 q 106 706 148 708 q 189 709 229 713 l 229 279 l 300 336 q 349 375 368 396 q 386 416 386 430 q 386 449 371 457 q 355 465 315 465 l 315 493 l 601 493 l 601 465 q 551 456 498 428 q 444 401 372 346 l 521 110 q 524 104 531 94 q 570 30 612 30 l 623 30 l 623 0 l 337 0 l 337 30 l 373 30 q 387 30 393 34 q 399 39 399 49 q 399 56 396 64 q 393 72 384 85 l 270 266 l 229 231 z"},"u":{"x_min":0,"x_max":596,"ha":596,"o":"m 12 493 q 21 493 33 492 q 44 492 66 492 q 104 492 142 494 q 179 495 216 498 l 216 175 q 216 111 231 85 q 246 59 281 59 q 325 59 349 93 q 374 127 374 190 l 374 411 q 374 448 363 457 q 352 465 314 465 l 298 465 l 298 493 q 307 493 319 492 q 331 492 353 492 q 393 492 432 494 q 471 495 509 498 l 509 82 q 509 45 516 38 q 523 30 550 30 l 577 30 l 577 0 l 532 0 q 490 0 451 -1 q 412 -2 375 -4 l 375 80 q 358 39 318 14 q 278 -11 227 -11 q 154 -11 118 26 q 82 62 82 136 l 82 408 q 82 447 72 456 q 61 465 26 465 l 12 465 z"},"]":{"x_min":0,"x_max":427,"ha":427,"o":"m 45 674 l 45 701 l 321 701 l 321 -229 l 45 -229 l 45 -199 l 116 -199 q 158 -199 169 -192 q 181 -184 181 -150 l 181 -138 l 181 605 q 181 651 173 663 q 166 674 126 674 l 117 674 z"},"U":{"x_min":0,"x_max":699,"ha":699,"o":"m 342 701 l 342 674 l 325 674 q 271 674 253 659 q 235 645 235 582 l 235 261 q 235 140 270 98 q 306 57 396 57 q 486 57 522 98 q 558 139 558 261 l 558 510 q 558 615 536 644 q 514 673 458 673 q 458 673 456 673 q 452 674 447 674 l 447 701 l 701 701 l 701 674 q 700 674 697 673 q 694 673 693 673 q 642 673 623 644 q 603 615 603 512 l 603 212 q 603 95 543 39 q 483 -16 356 -16 q 215 -16 156 39 q 97 94 97 231 l 97 582 q 97 644 79 659 q 62 674 8 674 l -4 674 l -4 701 z"},"o":{"x_min":0,"x_max":535,"ha":535,"o":"m 268 470 q 220 470 198 417 q 177 365 177 247 q 177 128 198 76 q 220 24 268 24 q 315 24 337 76 q 358 128 358 247 q 358 366 337 418 q 315 470 268 470 z m 267 504 q 369 504 440 429 q 511 355 511 247 q 511 138 441 63 q 370 -11 268 -11 q 166 -11 94 64 q 23 139 23 247 q 23 355 94 429 q 165 504 267 504 z"},"N":{"x_min":0,"x_max":725,"ha":725,"o":"m 157 225 l 157 199 q 157 85 180 58 q 204 31 268 30 l 268 0 l 14 0 l 14 30 l 22 30 q 73 30 92 59 q 112 89 112 192 l 112 616 q 112 649 101 662 q 90 674 61 674 l 15 674 l 15 701 l 241 701 l 578 178 l 578 504 q 578 614 556 643 q 533 673 477 673 q 477 673 475 673 q 471 674 466 674 l 466 701 l 720 701 l 720 674 q 717 674 715 673 q 712 673 712 673 q 661 673 642 644 q 622 615 622 512 l 622 0 l 535 0 l 157 581 z"},"+":{"x_min":0,"x_max":833,"ha":833,"o":"m 458 596 l 458 339 l 709 339 l 709 258 l 458 258 l 458 0 l 375 0 l 375 258 l 124 258 l 124 339 l 375 339 l 375 596 z"},"G":{"x_min":0,"x_max":718,"ha":718,"o":"m 584 713 l 615 713 l 615 467 l 582 467 q 556 568 497 624 q 438 680 359 680 q 276 680 235 599 q 194 518 194 352 q 194 175 233 99 q 271 22 359 22 q 428 22 460 69 q 492 116 492 217 q 492 283 478 300 q 464 316 422 316 l 405 316 l 405 351 l 709 351 l 709 316 q 659 316 644 305 q 629 295 629 261 l 629 -8 l 597 -8 q 592 5 584 28 q 560 94 549 94 q 545 94 538 82 q 532 74 529 70 q 496 27 449 6 q 403 -16 344 -16 q 209 -16 121 86 q 32 188 32 343 q 32 503 126 611 q 220 718 356 718 q 431 718 513 671 q 535 658 541 658 q 549 658 558 669 q 567 680 584 713 z"},"q":{"x_min":0,"x_max":584,"ha":584,"o":"m 512 -126 q 512 -161 519 -170 q 526 -178 554 -178 l 583 -178 l 583 -208 l 296 -208 l 296 -178 l 336 -178 q 364 -178 371 -170 q 378 -161 378 -126 l 378 67 q 361 33 326 14 q 291 -5 244 -5 q 152 -5 91 62 q 31 128 31 232 q 31 348 102 426 q 173 504 278 504 q 320 504 354 490 q 387 476 412 448 l 415 445 q 431 426 437 426 q 440 426 443 428 q 446 431 450 438 l 477 493 l 512 493 z m 378 314 q 378 392 355 430 q 333 468 287 468 q 237 468 212 416 q 188 363 188 255 q 188 144 209 99 q 230 54 281 54 q 327 54 353 91 q 378 128 378 197 z"},"d":{"x_min":0,"x_max":587,"ha":587,"o":"m 367 627 q 367 657 357 665 q 348 674 316 674 l 294 674 l 294 702 q 301 702 315 702 q 330 701 337 701 q 375 701 415 703 q 456 705 501 709 l 501 77 q 501 47 511 39 q 521 30 553 30 l 572 30 l 572 0 l 522 0 q 466 0 431 -1 q 396 -3 369 -6 l 369 67 q 349 31 311 11 q 272 -9 223 -9 q 141 -9 86 62 q 32 133 32 243 q 32 354 89 426 q 146 497 234 497 q 276 497 311 480 q 346 463 367 432 z m 368 306 q 368 374 346 407 q 323 440 277 440 q 229 440 207 395 q 184 350 184 256 q 184 148 206 100 q 227 52 275 52 q 318 52 343 86 q 368 120 368 180 z"},"1":{"x_min":0,"x_max":528,"ha":528,"o":"m 342 107 q 342 61 358 47 q 375 33 427 33 l 459 33 l 459 0 l 80 0 l 80 33 l 118 33 q 170 33 187 47 q 203 61 203 107 l 203 427 q 203 483 184 500 q 166 517 108 517 l 83 517 l 83 552 q 170 563 228 603 q 286 642 309 706 l 342 706 z"},"5":{"x_min":0,"x_max":528,"ha":528,"o":"m 84 706 l 135 706 q 171 689 211 681 q 250 673 292 673 q 338 673 378 683 q 417 692 451 712 l 472 688 q 424 616 366 582 q 308 549 229 549 q 206 549 180 552 q 155 556 124 564 l 115 406 q 138 435 182 452 q 226 469 277 469 q 375 469 434 405 q 492 341 492 234 q 492 125 422 58 q 352 -9 237 -9 q 147 -9 88 34 q 30 76 30 139 q 30 177 53 201 q 76 225 113 225 q 148 225 172 203 q 196 182 196 150 q 196 115 170 94 q 145 72 145 66 q 145 50 167 38 q 188 25 219 25 q 281 25 312 76 q 343 127 343 228 q 343 317 312 362 q 282 407 221 407 q 180 407 152 387 q 124 367 108 326 l 63 328 z"}}}
